<svg height="480pt" viewBox="0 0 480 480.08841" width="480pt" xmlns="http://www.w3.org/2000/svg" fill="#ffffff"><path d="m282.765625 225.207031c-24.078125 7.960938-49.902344 9.042969-74.5625 3.121094-3.164063-.789063-6.488281.421875-8.40625 3.058594-1.914063 2.640625-2.039063 6.175781-.3125 8.941406 1.144531 1.78125 2.914063 3.0625 4.960937 3.601563 11.667969 2.746093 23.613282 4.140624 35.597657 4.160156 4.882812 0 9.839843-.242188 14.722656-.722656 11.210937-1.066407 22.269531-3.402344 32.957031-6.957032 4.195313-1.375 6.488282-5.882812 5.121094-10.082031-1.433594-4.140625-5.890625-6.402344-10.078125-5.121094zm0 0"/><path d="m479.714844 5.832031c-1.246094-4.234375-5.691406-6.660156-9.925782-5.414062l-136 40c-1.929687.558593-3.574218 1.828125-4.601562 3.550781l-26.472656 44.121094h-126.671875c.046875-46.75-36.464844-85.375-83.140625-87.957032-46.679688-2.578124-87.226563 31.789063-92.332032 78.257813-5.105468 46.46875 27.015626 88.816406 73.136719 96.433594 29.203125 61.660156 90.171875 102.054687 158.335938 104.914062v184.351563h-64c-4.417969 0-8 3.582031-8 8 0 4.417968 3.582031 8 8 8h144c4.417969 0 8-3.582032 8-8 0-4.417969-3.582031-8-8-8h-64v-184.203125c81.292969-3.648438 150.570312-60.167969 170.472656-139.070313 1.628906-1.496094 2.558594-3.597656 2.570313-5.808594-.011719-1.007812-.214844-2.007812-.59375-2.945312 2.359374-11.84375 3.546874-23.894531 3.550781-35.972656 0-4.417969-3.582031-8-8-8h-94.671875l19.929687-33.210938 133-39.117187c4.234375-1.25 6.660157-5.691407 5.414063-9.929688zm-186.597656 98.257813-5.546876 9.238281c-16.667968.398437-33.234374 2.742187-49.359374 6.984375-18.207032 4.796875-36.996094 7.050781-55.824219 6.695312-18.828125.355469-37.613281-1.902343-55.824219-6.703124-17.503906-4.5625-35.507812-6.929688-53.597656-7.046876-.304688-3.007812-.425782-6.089843-.570313-9.167968zm-277.074219-16c0-39.765625 32.238281-72 72-72 39.765625 0 72 32.234375 72 72h-96c-4.417969 0-8 3.582031-8 8-.027344 11.21875 1.007812 22.414062 3.089843 33.4375 1.738282 9.261718 4.183594 18.371094 7.320313 27.257812-30.027344-9.398437-50.453125-37.234375-50.410156-68.695312zm224 176c-79.980469.074218-148.878907-56.363282-164.558594-134.792969 6.199219.160156 11.632813.503906 16.496094.984375 3.714843 16.355469 10.144531 31.976562 19.023437 46.207031 5.964844 9.570313 12.964844 18.449219 20.878906 26.480469 3.117188 3.136719 8.183594 3.15625 11.320313.039062 3.136719-3.113281 3.15625-8.183593.042969-11.320312-16.179688-16.398438-27.894532-36.660156-34.035156-58.863281 4.753906.9375 9.167968 1.976562 13.601562 3.039062 19.433594 5.089844 39.472656 7.492188 59.558594 7.144531 20.085937.347657 40.125-2.054687 59.5625-7.136718 11.691406-3.066406 23.640625-5.078125 35.695312-6l-44.457031 74.097656c-1.535156 2.453125-1.625 5.542969-.238281 8.078125 1.386718 2.539063 4.035156 4.132813 6.929687 4.164063 2.890625.035156 5.574219-1.496094 7.019531-4.003907l49.816407-83.023437h1.066406c18.8125-.351563 37.585937 1.902344 55.78125 6.695312 4.800781 1.160156 9.769531 2.320313 15.203125 3.378906-.5625 1.6875-1.011719 3.4375-1.601562 5.085938-5.386719 14.136719-13.09375 27.277344-22.800782 38.878906-2.03125 2.375-2.484375 5.722656-1.15625 8.550782 1.328125 2.828124 4.191406 4.617187 7.316406 4.570312 2.375-.019531 4.621094-1.070312 6.160157-2.878906 10.847656-12.984375 19.449219-27.695313 25.441406-43.519532 1.015625-2.65625 1.78125-5.503906 2.65625-8.28125 4.902344.519532 10.398437.914063 16.527344 1.136719-20.839844 71.761719-86.523438 121.167969-161.25 121.289063zm167.59375-160c-.332031 7.648437-1.183594 15.265625-2.550781 22.796875-16.136719-.25-32.183594-2.457031-47.785157-6.574219-16.675781-4.371094-33.8125-6.726562-51.046875-7.015625l5.519532-9.207031zm0 0"/><path d="m122.691406 68.089844c2.210938 3.820312 7.097656 5.128906 10.921875 2.925781l6.925781-4c2.496094-1.417969 4.039063-4.066406 4.046876-6.9375.007812-2.871094-1.527344-5.523437-4.015626-6.953125-2.488281-1.429688-5.554687-1.417969-8.03125.035156l-6.925781 4c-3.824219 2.210938-5.132812 7.105469-2.921875 10.929688zm0 0"/><path d="m108.042969 53.441406c1.21875.699219 2.597656 1.0625 4 1.046875 2.863281.003907 5.507812-1.523437 6.9375-4l4-6.929687c2.171875-3.820313.855469-8.679688-2.953125-10.878906-3.808594-2.199219-8.679688-.914063-10.902344 2.878906l-4 6.929687c-1.070312 1.839844-1.363281 4.027344-.816406 6.082031.550781 2.054688 1.894531 3.808594 3.734375 4.871094zm0 0"/><path d="m88.042969 48.089844c4.417969 0 8-3.582032 8-8v-8c0-4.417969-3.582031-8-8-8s-8 3.582031-8 8v8c0 4.417968 3.582031 8 8 8zm0 0"/><path d="m57.117188 50.488281c1.429687 2.476563 4.070312 4 6.925781 4 1.40625.003907 2.789062-.371093 4-1.078125 3.824219-2.210937 5.132812-7.097656 2.929687-10.921875l-4-6.929687c-1.417968-2.492188-4.066406-4.039063-6.9375-4.042969-2.871094-.007813-5.523437 1.523437-6.953125 4.015625-1.429687 2.488281-1.417969 5.550781.035157 8.027344zm0 0"/><path d="m50.445312 57.160156-6.929687-4c-3.824219-2.171875-8.683594-.855468-10.882813 2.953125-2.199218 3.808594-.910156 8.679688 2.882813 10.902344l6.929687 4c3.820313 2.175781 8.683594.855469 10.882813-2.953125 2.195313-3.808594.910156-8.679688-2.882813-10.902344zm0 0"/><path d="m40.042969 96.089844c4.417969 0 8-3.582032 8-8 0-4.417969-3.582031-8-8-8h-8c-4.417969 0-8 3.582031-8 8 0 4.417968 3.582031 8 8 8zm0 0"/><path d="m42.445312 105.160156-6.929687 4c-2.496094 1.417969-4.039063 4.066406-4.046875 6.9375-.003906 2.871094 1.527344 5.523438 4.015625 6.953125 2.492187 1.429688 5.554687 1.417969 8.03125-.035156l6.929687-4c3.792969-2.222656 5.078126-7.09375 2.882813-10.902344-2.199219-3.808593-7.0625-5.125-10.882813-2.953125zm0 0"/><path d="m184.042969 224.089844c0 4.417968-3.582031 8-8 8s-8-3.582032-8-8c0-4.417969 3.582031-8 8-8s8 3.582031 8 8zm0 0"/><path d="m336.042969 208.089844c0 4.417968-3.582031 8-8 8s-8-3.582032-8-8c0-4.417969 3.582031-8 8-8s8 3.582031 8 8zm0 0"/></svg>